{"title":"Higashi no Eden: Gekijouban I The King of Eden","uid":6209209,"size":506404478,"categoryP":"video","categoryS":"movies","magnet":"?xt=urn:btih:a97521a1650e4c92c57ab0a2fa5d0f5a13c74766&amp;dn=Higashi+no+Eden%3A+Gekijouban+I+The+King+of+Eden&amp;tr=udp%3A%2F%2Ftracker.openbittorrent.com%3A80&amp;tr=udp%3A%2F%2Fopen.demonii.com%3A1337&amp;tr=udp%3A%2F%2Ftracker.coppersurfer.tk%3A6969&amp;tr=udp%3A%2F%2Fexodus.desync.com%3A6969","seeders":0,"leechers":0,"uploader":"cable.guy","files":2,"time":1298920131,"description":"The story continues where it left off from the Eden of the East TV series, and brings Morimi Saki back to the USA in order to find Takizawa Akira. The other Selecao however are actively moving to take part in the game, and a few in particular are making dangerous moves in order to eliminate Takizawa or move towards their picture of a better Japan.\n\nGeneral\nFormat : AVI\nFormat/Info : Audio Video Interleave\nFile size : 483 MiB\nDuration : 1h 21mn\nOverall bit rate : 828 Kbps\nWriting application : MEncoder SVN-r30881(20100311-gcc4.3.3)\nWriting library : MPlayer\n\nVideo\nID : 0\nFormat : MPEG-4 Visual\nFormat profile : AdvancedSimple@L5\nFormat settings, BVOP : Yes\nFormat settings, QPel : No\nFormat settings, GMC : No warppoints\nFormat settings, Matrix : Default (H.263)\nCodec ID : XVID\nCodec ID/Hint : XviD\nDuration : 1h 21mn\nBit rate : 688 Kbps\nWidth : 720 pixels\nHeight : 576 pixels\nDisplay aspect ratio : 5:4\nFrame rate : 23.976 fps\nStandard : PAL\nResolution : 24 bits\nColorimetry : 4:2:0\nScan type : Progressive\nBits/(Pixel*Frame) : 0.069\nStream size : 401 MiB (83%)\nWriting library : XviD 1.2.1 (UTC 2008-12-04)\n\nAudio\nID : 1\nFormat : MPEG Audio\nFormat version : Version 1\nFormat profile : Layer 3\nCodec ID : 55\nCodec ID/Hint : MP3\nDuration : 1h 21mn\nBit rate mode : Constant\nBit rate : 128 Kbps\nChannel(s) : 2 channels\nSampling rate : 44.1 KHz\nResolution : 16 bits\nVideo delay : 42ms\nStream size : 74.7 MiB (15%)\nAlignment : Aligned on interleaves\nInterleave, duration : 26 ms (0.63 video frame)\nInterleave, preload duration : 522 ms","torrent":{"xt":"urn:btih:a97521a1650e4c92c57ab0a2fa5d0f5a13c74766","amp;dn":"Higashi+no+Eden%3A+Gekijouban+I+The+King+of+Eden","amp;tr":["udp%3A%2F%2Ftracker.openbittorrent.com%3A80","udp%3A%2F%2Fopen.demonii.com%3A1337","udp%3A%2F%2Ftracker.coppersurfer.tk%3A6969","udp%3A%2F%2Fexodus.desync.com%3A6969"],"infoHash":"a97521a1650e4c92c57ab0a2fa5d0f5a13c74766","infoHashBuffer":{"type":"Buffer","data":[169,117,33,161,101,14,76,146,197,122,176,162,250,93,15,90,19,199,71,102]},"announce":[],"urlList":[]}}